<mxfile host="app.diagrams.net" modified="2024-03-09T15:12:36.801Z" agent="Mozilla/5.0 (Windows NT 10.0; Win64; x64) AppleWebKit/537.36 (KHTML, like Gecko) Chrome/122.0.0.0 Safari/537.36" etag="idiKPM8ICM3i02XrtqOa" version="24.0.0" type="device">
  <diagram name="Page-1" id="KIsN7xEvKxNKWgNxgUy-">
    <mxGraphModel dx="1804" dy="558" grid="1" gridSize="10" guides="1" tooltips="1" connect="1" arrows="1" fold="1" page="1" pageScale="1" pageWidth="850" pageHeight="1100" math="0" shadow="0">
      <root>
        <mxCell id="0" />
        <mxCell id="1" parent="0" />
        <mxCell id="es5XUmQ_hYfHp3zKMugw-3" value="login filter" style="rounded=0;whiteSpace=wrap;html=1;direction=west;verticalAlign=middle;spacingTop=-70;sketch=1;curveFitting=1;jiggle=2;" vertex="1" parent="1">
          <mxGeometry x="220" y="230" width="30" height="250" as="geometry" />
        </mxCell>
        <mxCell id="es5XUmQ_hYfHp3zKMugw-4" value="UTF-8 filter" style="rounded=0;whiteSpace=wrap;html=1;direction=west;spacingTop=-70;sketch=1;curveFitting=1;jiggle=2;" vertex="1" parent="1">
          <mxGeometry x="260" y="230" width="40" height="250" as="geometry" />
        </mxCell>
        <mxCell id="es5XUmQ_hYfHp3zKMugw-5" value="Login" style="shape=flexArrow;endArrow=classic;html=1;rounded=0;fillColor=#dae8fc;strokeColor=#6c8ebf;fillStyle=zigzag-line;sketch=1;curveFitting=1;jiggle=2;" edge="1" parent="1">
          <mxGeometry width="50" height="50" relative="1" as="geometry">
            <mxPoint x="20" y="350" as="sourcePoint" />
            <mxPoint x="347" y="350" as="targetPoint" />
          </mxGeometry>
        </mxCell>
        <mxCell id="es5XUmQ_hYfHp3zKMugw-8" value="요청" style="edgeLabel;html=1;align=center;verticalAlign=middle;resizable=0;points=[];" vertex="1" connectable="0" parent="es5XUmQ_hYfHp3zKMugw-5">
          <mxGeometry x="-0.7798" y="4" relative="1" as="geometry">
            <mxPoint as="offset" />
          </mxGeometry>
        </mxCell>
        <mxCell id="es5XUmQ_hYfHp3zKMugw-7" value="Client (Web)" style="rounded=0;whiteSpace=wrap;html=1;fillColor=#f5f5f5;fontColor=#333333;strokeColor=#666666;fillStyle=auto;sketch=1;curveFitting=1;jiggle=2;" vertex="1" parent="1">
          <mxGeometry x="-110" y="250" width="120" height="210" as="geometry" />
        </mxCell>
        <mxCell id="es5XUmQ_hYfHp3zKMugw-9" value="Servlet" style="swimlane;whiteSpace=wrap;html=1;sketch=1;curveFitting=1;jiggle=2;" vertex="1" parent="1">
          <mxGeometry x="120" y="150" width="660" height="470" as="geometry" />
        </mxCell>
        <mxCell id="es5XUmQ_hYfHp3zKMugw-11" value="MemberController" style="rounded=0;whiteSpace=wrap;html=1;fillColor=#f5f5f5;fontColor=#333333;strokeColor=#666666;fillStyle=auto;sketch=1;curveFitting=1;jiggle=2;" vertex="1" parent="es5XUmQ_hYfHp3zKMugw-9">
          <mxGeometry x="245" y="80" width="120" height="110" as="geometry" />
        </mxCell>
        <mxCell id="es5XUmQ_hYfHp3zKMugw-10" value="JSP" style="swimlane;whiteSpace=wrap;html=1;sketch=1;curveFitting=1;jiggle=2;" vertex="1" parent="1">
          <mxGeometry x="-40" y="680" width="200" height="200" as="geometry" />
        </mxCell>
      </root>
    </mxGraphModel>
  </diagram>
</mxfile>
